# xmcd
#
# Track frame offsets:
#	150
#	1427
#	31088
#	33505
#	70592
#	82218
#	104581
#	112430
#	122098
#	127053
#	146836
#	191103
#	199840
#	215938
#	232851
#	247008
#	279932
#	290864
#	294814
#	297664
#
# Disc length: 3981 seconds
# Revision: 0
# Processed by: cddbd v1.5.2PL0 Copyright (c) Steve Scherf et al.
# Submitted via: dBpowerAMP V12.0
#
DISCID=4e0f8b14
DTITLE=Hale Dwoskin - The Inner Circle Retreat 01 CD 13
DYEAR=2006
DGENRE=Speech
TTITLE0=Intro Music
TTITLE1=The Facilitator Course - Helping Others
TTITLE2=Question
TTITLE3=Release on Betrayal
TTITLE4=Enjoy Holding On - Handling Things
TTITLE5=Partnership Release Demonstration - Q and A
TTITLE6=Carrying Excess Baggage
TTITLE7=Wanting to Be the Victim
TTITLE8=Wanting to Make a Problem Real
TTITLE9=Release on Wanting to Make a Problem Real
TTITLE10=Depression
TTITLE11=Participant Gain
TTITLE12=Your World Is Personal and Artificial
TTITLE13=Wanting to Be One
TTITLE14=Releasing Conflicting Goals
TTITLE15=Hales Gains - Lesters Teaching Style
TTITLE16=The Belief the Body Will Live Forever
TTITLE17=Wanting to Live - Wanting to Die
TTITLE18=Who Wants to Die
TTITLE19=Concluding Music
EXTD=
EXTT0=
EXTT1=
EXTT2=
EXTT3=
EXTT4=
EXTT5=
EXTT6=
EXTT7=
EXTT8=
EXTT9=
EXTT10=
EXTT11=
EXTT12=
EXTT13=
EXTT14=
EXTT15=
EXTT16=
EXTT17=
EXTT18=
EXTT19=
PLAYORDER=
